<?xml version="1.0" encoding="UTF-8"?>
<!DOCTYPE svg PUBLIC "-//W3C//DTD SVG 1.1//EN" "http://www.w3.org/Graphics/SVG/1.1/DTD/svg11.dtd">
<svg xmlns="http://www.w3.org/2000/svg" version="1.1" width="512px" height="512px" style="shape-rendering:geometricPrecision; text-rendering:geometricPrecision; image-rendering:optimizeQuality; fill-rule:evenodd; clip-rule:evenodd" xmlns:xlink="http://www.w3.org/1999/xlink">
<g><path style="opacity:0.935" fill="#000000" d="M 248.5,16.5 C 282.104,16.2722 297.604,32.9388 295,66.5C 293.832,76.0151 290.332,84.5151 284.5,92C 293.696,92.9198 302.196,95.7531 310,100.5C 314.119,99.4287 318.285,98.5953 322.5,98C 313.374,84.4201 310.541,69.5868 314,53.5C 322.105,33.5244 336.938,25.0244 358.5,28C 373.36,32.1931 382.86,41.6931 387,56.5C 389.381,71.3016 386.548,84.9682 378.5,97.5C 399.386,100.888 411.886,112.888 416,133.5C 416.978,156.255 416.645,178.922 415,201.5C 414.167,202.333 413.333,203.167 412.5,204C 388.16,204.167 363.826,204.667 339.5,205.5C 346.212,229.779 342.045,252.113 327,272.5C 308.57,295.466 286.07,313.299 259.5,326C 256.833,326.667 254.167,326.667 251.5,326C 229.271,314.8 209.438,300.3 192,282.5C 180.378,269.59 172.711,254.59 169,237.5C 167.768,226.634 168.602,215.967 171.5,205.5C 147.174,204.667 122.84,204.167 98.5,204C 96.5125,202.681 95.3459,200.848 95,198.5C 94.0734,174.801 94.4068,151.134 96,127.5C 101.966,110.04 114.133,100.04 132.5,97.5C 124.621,84.9397 121.788,71.2731 124,56.5C 131.211,34.4706 146.377,24.9706 169.5,28C 184.333,32.1667 193.833,41.6667 198,56.5C 200.215,71.2613 197.381,84.928 189.5,97.5C 193.494,98.4994 197.494,99.4994 201.5,100.5C 209.218,95.9826 217.551,93.1493 226.5,92C 213.582,72.7513 212.415,52.9179 223,32.5C 229.644,23.9871 238.144,18.6538 248.5,16.5 Z M 249.5,31.5 C 274.057,31.9073 283.89,44.2407 279,68.5C 276.3,81.6989 268.466,89.6989 255.5,92.5C 244.88,90.7196 237.713,84.7196 234,74.5C 229.49,64.1034 229.49,53.7701 234,43.5C 238.02,37.9194 243.186,33.9194 249.5,31.5 Z M 155.5,42.5 C 169.205,40.9317 178.372,46.5984 183,59.5C 184.955,72.0172 181.789,83.0172 173.5,92.5C 162.073,100.414 152.239,98.7475 144,87.5C 137.639,76.0701 136.973,64.4034 142,52.5C 145.531,47.795 150.031,44.4617 155.5,42.5 Z M 344.5,42.5 C 365.649,42.1066 374.816,52.4399 372,73.5C 370.709,84.4327 365.209,92.266 355.5,97C 348.816,98.5192 342.816,97.1859 337.5,93C 327.062,80.7653 324.895,67.2653 331,52.5C 334.579,47.7307 339.079,44.3974 344.5,42.5 Z M 222.5,107.5 C 244.503,107.333 266.503,107.5 288.5,108C 302.024,111.191 309.524,119.691 311,133.5C 311.667,146.833 311.667,160.167 311,173.5C 306.412,171.311 301.579,169.978 296.5,169.5C 296.667,158.162 296.5,146.828 296,135.5C 291.667,131.5 287.333,131.5 283,135.5C 282.5,147.162 282.333,158.829 282.5,170.5C 277.53,171.482 272.863,173.316 268.5,176C 264.018,179.647 259.685,183.481 255.5,187.5C 251.315,183.481 246.982,179.647 242.5,176C 238.137,173.316 233.47,171.482 228.5,170.5C 228.667,158.829 228.5,147.162 228,135.5C 223.667,131.5 219.333,131.5 215,135.5C 214.5,146.828 214.333,158.162 214.5,169.5C 209.421,169.978 204.588,171.311 200,173.5C 199.333,160.167 199.333,146.833 200,133.5C 201.665,119.675 209.165,111.008 222.5,107.5 Z M 133.5,112.5 C 152.568,112.038 171.568,112.538 190.5,114C 188.42,117.237 186.92,120.737 186,124.5C 185.667,144.167 185.333,163.833 185,183.5C 183.38,185.241 181.88,187.075 180.5,189C 167.504,189.5 154.504,189.667 141.5,189.5C 141.667,176.163 141.5,162.829 141,149.5C 136.833,143.241 132.167,142.908 127,148.5C 126.5,162.163 126.333,175.829 126.5,189.5C 120.833,189.5 115.167,189.5 109.5,189.5C 109.049,169.779 109.549,150.112 111,130.5C 115.199,120.323 122.699,114.323 133.5,112.5 Z M 323.5,112.5 C 341.503,112.333 359.503,112.5 377.5,113C 390.915,114.749 398.748,122.249 401,135.5C 401.5,153.497 401.667,171.497 401.5,189.5C 395.833,189.5 390.167,189.5 384.5,189.5C 384.667,175.829 384.5,162.163 384,148.5C 379.333,143.167 374.667,143.167 370,148.5C 369.5,162.163 369.333,175.829 369.5,189.5C 356.496,189.667 343.496,189.5 330.5,189C 329.378,186.876 327.878,185.043 326,183.5C 325.667,163.833 325.333,144.167 325,124.5C 324.186,120.705 322.686,117.205 320.5,114C 321.737,113.768 322.737,113.268 323.5,112.5 Z M 212.5,184.5 C 219.549,183.718 226.216,184.885 232.5,188C 239.167,193.333 245.167,199.333 250.5,206C 253.833,208 257.167,208 260.5,206C 265.467,200.031 270.801,194.365 276.5,189C 293.085,180.966 307.252,184.133 319,198.5C 331.093,217.682 331.093,237.016 319,256.5C 302.588,280.078 281.421,298.078 255.5,310.5C 233.275,299.446 214.108,284.446 198,265.5C 189.105,253.817 183.938,240.65 182.5,226C 183.88,205.676 193.88,191.842 212.5,184.5 Z M 251.5,223.5 C 254.167,223.5 256.833,223.5 259.5,223.5C 259.09,229.621 259.59,235.621 261,241.5C 262.171,242.893 263.671,243.727 265.5,244C 270.155,244.499 274.821,244.666 279.5,244.5C 279.5,247.167 279.5,249.833 279.5,252.5C 273.824,252.334 268.157,252.501 262.5,253C 261.299,253.903 260.465,255.069 260,256.5C 259.501,261.823 259.334,267.156 259.5,272.5C 256.833,272.5 254.167,272.5 251.5,272.5C 251.91,266.379 251.41,260.379 250,254.5C 249.25,253.874 248.416,253.374 247.5,253C 242.177,252.501 236.844,252.334 231.5,252.5C 231.5,249.833 231.5,247.167 231.5,244.5C 236.179,244.666 240.845,244.499 245.5,244C 247.329,243.727 248.829,242.893 250,241.5C 251.41,235.621 251.91,229.621 251.5,223.5 Z"/></g>
<g><path style="opacity:0.931" fill="#000000" d="M 486.5,86.5 C 494.169,86.4117 499.669,89.7451 503,96.5C 503.667,151.5 503.667,206.5 503,261.5C 481.44,323.95 453.44,383.284 419,439.5C 420.854,456.477 422.52,473.477 424,490.5C 420.623,494.749 416.457,495.582 411.5,493C 410.874,492.25 410.374,491.416 410,490.5C 406.963,472.246 404.963,453.913 404,435.5C 438.48,378.868 466.814,319.201 489,256.5C 489.5,205.168 489.667,153.834 489.5,102.5C 474.669,103.159 465.836,110.826 463,125.5C 460.823,162.512 458.49,199.512 456,236.5C 439.333,259.167 422.667,281.833 406,304.5C 402.254,321.896 398.254,339.23 394,356.5C 386.972,361.397 382.472,359.731 380.5,351.5C 387.974,315.297 395.641,279.131 403.5,243C 401.572,230.398 394.572,226.065 382.5,230C 378.182,233.315 375.015,237.481 373,242.5C 355.471,285.42 338.138,328.42 321,371.5C 317.737,383.106 316.237,394.94 316.5,407C 318.263,434.838 319.763,462.671 321,490.5C 319.607,493.366 317.274,494.699 314,494.5C 310.279,494.779 307.945,493.112 307,489.5C 303.577,456.575 301.91,423.575 302,390.5C 303.058,379.876 305.391,369.543 309,359.5C 325.862,318.58 342.529,277.58 359,236.5C 368.731,214.591 384.565,208.424 406.5,218C 415.854,226.058 419.687,236.225 418,248.5C 416.599,254.496 415.599,260.496 415,266.5C 423.667,254.5 432.333,242.5 441,230.5C 443.665,194.865 445.998,159.199 448,123.5C 451.967,101.695 464.8,89.3622 486.5,86.5 Z"/></g>
<g><path style="opacity:0.931" fill="#000000" d="M 16.5,87.5 C 41.749,86.2084 57.249,97.875 63,122.5C 65.1122,158.521 67.4456,194.521 70,230.5C 78.6667,242.5 87.3333,254.5 96,266.5C 94.9336,258.711 93.7669,250.878 92.5,243C 94.6922,221.14 106.692,211.473 128.5,214C 139.883,217.714 147.716,225.214 152,236.5C 168.667,277.833 185.333,319.167 202,360.5C 207.419,375.348 209.919,390.681 209.5,406.5C 208.046,434.19 206.213,461.857 204,489.5C 200.196,495.377 195.529,496.044 190,491.5C 191.024,463.159 192.524,434.826 194.5,406.5C 194.769,391.681 192.269,377.348 187,363.5C 169.886,320.605 152.219,277.938 134,235.5C 127.187,227.485 119.52,226.485 111,232.5C 106.905,240.264 106.572,248.264 110,256.5C 116.992,288.133 123.825,319.8 130.5,351.5C 128.443,359.779 123.943,361.446 117,356.5C 112.69,339.259 108.69,321.926 105,304.5C 88.3333,281.833 71.6667,259.167 55,236.5C 52.5105,199.512 50.1772,162.512 48,125.5C 45.164,110.826 36.3306,103.159 21.5,102.5C 21.3333,153.834 21.5,205.168 22,256.5C 43.5191,317.867 71.1857,376.2 105,431.5C 106.899,434.374 107.733,437.541 107.5,441C 105.52,457.524 103.354,474.024 101,490.5C 99.6071,493.366 97.2738,494.699 94,494.5C 90.7649,494.717 88.4316,493.383 87,490.5C 88.4796,473.477 90.1463,456.477 92,439.5C 57.5604,383.284 29.5604,323.95 8,261.5C 7.33333,206.5 7.33333,151.5 8,96.5C 9.68784,92.3148 12.5212,89.3148 16.5,87.5 Z"/></g>
<g><path style="opacity:0.941" fill="#000000" d="M 241.5,208.5 C 251.605,208.051 261.605,208.551 271.5,210C 272.701,210.903 273.535,212.069 274,213.5C 274.499,218.823 274.666,224.156 274.5,229.5C 291.395,224.899 298.062,231.066 294.5,248C 298.062,264.934 291.395,271.101 274.5,266.5C 278.85,283.477 272.517,290.477 255.5,287.5C 238.483,290.477 232.15,283.477 236.5,266.5C 219.605,271.101 212.938,264.934 216.5,248C 212.938,231.066 219.605,224.899 236.5,229.5C 236.334,224.156 236.501,218.823 237,213.5C 238.025,211.313 239.525,209.646 241.5,208.5 Z M 251.5,223.5 C 251.91,229.621 251.41,235.621 250,241.5C 248.829,242.893 247.329,243.727 245.5,244C 240.845,244.499 236.179,244.666 231.5,244.5C 231.5,247.167 231.5,249.833 231.5,252.5C 236.844,252.334 242.177,252.501 247.5,253C 248.416,253.374 249.25,253.874 250,254.5C 251.41,260.379 251.91,266.379 251.5,272.5C 254.167,272.5 256.833,272.5 259.5,272.5C 259.334,267.156 259.501,261.823 260,256.5C 260.465,255.069 261.299,253.903 262.5,253C 268.157,252.501 273.824,252.334 279.5,252.5C 279.5,249.833 279.5,247.167 279.5,244.5C 274.821,244.666 270.155,244.499 265.5,244C 263.671,243.727 262.171,242.893 261,241.5C 259.59,235.621 259.09,229.621 259.5,223.5C 256.833,223.5 254.167,223.5 251.5,223.5 Z"/></g>
</svg>
