<svg width="588" height="519" viewBox="0 0 588 519" fill="none" xmlns="http://www.w3.org/2000/svg">
<g clip-path="url(#clip0_1_41)">
<g opacity="0.9">
<path opacity="0.3" d="M280.7 143.891C309.2 196.991 315.6 255.891 303.1 310.291C301.6 316.791 294.6 320.491 288.3 317.991C235.9 297.891 190.2 259.691 161.7 206.591C133.3 153.491 126.9 94.5913 139.4 40.1913C140.9 33.6913 147.9 29.9913 154.2 32.4913C206.6 52.5913 252.3 90.7913 280.7 143.891Z" fill="#00B86C"/>
<path opacity="0.5" d="M336.4 149.391C345.5 208.791 331.8 266.491 301.8 313.691C298.2 319.291 290.4 320.491 285.3 316.191C242.5 279.991 212.2 228.891 203.1 169.391C194 109.991 207.7 52.2913 237.6 5.09126C241.2 -0.508743 249.1 -1.70874 254.2 2.59126C296.9 38.8913 327.3 89.8913 336.4 149.391Z" fill="#00B86C"/>
<path opacity="0.6" d="M394 176.991C380.2 235.491 345.8 283.991 300.3 316.691C294.8 320.591 287.1 318.791 284 312.891C257.9 263.491 249 204.891 262.8 146.391C276.7 87.7913 311.1 39.3913 356.6 6.69126C362 2.79126 369.8 4.59126 372.9 10.4913C398.9 59.8913 407.9 118.491 394 176.991Z" fill="#00B86C"/>
<path d="M307.8 143.891C279.4 196.991 273 255.891 285.5 310.291C287 316.791 294 320.491 300.3 317.991C352.7 297.891 398.4 259.691 426.8 206.591C455.3 153.491 461.7 94.5913 449.2 40.1913C447.7 33.6913 440.7 29.9913 434.4 32.4913C382 52.5913 336.3 90.7913 307.8 143.891Z" fill="#00B86C"/>
</g>
<path d="M329.6 243.791C336.2 224.891 326.2 204.291 307.3 197.691C288.4 190.991 267.7 200.991 261.1 219.791C254.4 238.691 264.4 259.391 283.3 265.991C302.2 272.591 322.9 262.691 329.6 243.791Z" fill="#1B3158"/>
<path d="M448.4 152.891C447.667 156.025 446.8 159.091 445.8 162.091C425.5 255.591 294.7 340.691 294.7 340.691C294.7 340.691 154.4 246.191 140.2 152.491C140.2 152.025 140.2 151.791 140.2 151.791C140.2 151.791 206.4 273.691 294.4 273.691C382.5 273.691 448.3 151.791 448.3 151.791C448.3 151.791 448.4 152.091 448.4 152.891Z" fill="#1B3158"/>
<path d="M35.9 494.991H36.3L51.6 389.691H70.3L50.3 518.791H20L0 389.591H20.5L35.9 494.991Z" fill="#1B3158"/>
<path fill-rule="evenodd" clip-rule="evenodd" d="M74.8999 476.891L111.9 389.591H134.1V476.891H143.7V495.291H134.1V518.691H113.7V495.291H74.8999V476.891ZM113.7 476.891V429.191H113.3L93.5999 476.891H113.7Z" fill="#1B3158"/>
<path d="M201.9 518.691H181.5V389.591H201.9V444.991H225V389.591H245.7V518.691H225V463.391H201.9V518.691Z" fill="#1B3158"/>
<path d="M280.8 444.091H308.8V462.491H280.8V500.291H316V518.791H260.5V389.691H316V408.091H280.8V444.091Z" fill="#1B3158"/>
<path fill-rule="evenodd" clip-rule="evenodd" d="M373.8 518.691L370.3 495.291H345.3L341.8 518.691H323.1L343.9 389.591H373.6L394.3 518.691H373.8ZM367.5 477.791L357.9 412.491H357.6L348 477.791H367.5Z" fill="#1B3158"/>
<path d="M403.8 389.591H424.1V500.291H457.6V518.691H403.8V389.591Z" fill="#1B3158"/>
<path d="M451.3 389.591H514.2V408.091H492.9V518.691H472.5V408.091H451.3V389.591Z" fill="#1B3158"/>
<path d="M543.4 518.691H523V389.591H543.4V444.991H566.5V389.591H587.2V518.691H566.5V463.391H543.4V518.691Z" fill="#1B3158"/>
</g>
<defs>
<clipPath id="clip0_1_41">
<rect width="587.2" height="518.791" fill="white"/>
</clipPath>
</defs>
</svg>
